#!OML:ASF F:\VICON\USERDATA\INSTALL\rory3\rory3.ASF
:FULLY-SPECIFIED
:DEGREES
361
root -8.13226 16.521 9.0284 194.116 149.948 200.641
lowerback -14.1785 -3.10299 -14.0003
upperback -8.47292 -2.12699 -6.95318
thorax -0.98423 -0.62572 0.131954
lowerneck -11.8728 -5.66929 -5.34295
upperneck 39.354 -8.68388 4.37584
head 16.6438 -3.71035 1.40946
rclavicle -2.17669e-014 -7.91163e-014
rhumerus -121.69 -57.0835 90.1469
rradius 12.5414
rwrist 123.631
rhand 17.2867 1.38713
rfingers 7.12502
rthumb 41.9996 -23.2031
lclavicle -2.17669e-014 -7.91163e-014
lhumerus -194.604 -179.097 201.159
lradius 17.4311
lwrist -50.4695
lhand 0.384909 28.7035
lfingers 7.12502
lthumb 25.959 56.9508
rfemur 147.995 -167.683 -168.299
rtibia 48.2599
rfoot -32.1661 -32.8182
rtoes 23.2179
lfemur -11.581 1.72102 13.5092
ltibia 46.0038
lfoot -39.1816 23.5215
ltoes 53.342
362
root -8.14649 16.3339 9.11283 194.222 152.212 199.386
lowerback -13.8224 -2.73839 -12.4795
upperback -9.01306 -1.98705 -6.87964
thorax -1.78478 -0.568372 -0.569836
lowerneck -12.4393 -5.13856 -4.71416
upperneck 39.5466 -7.99753 4.2447
head 16.789 -3.34092 1.35183
rclavicle -1.80894e-014 -8.54774e-014
rhumerus -119.363 -59.0247 86.0262
rradius 12.2891
rwrist 121.255
rhand 16.0417 1.98696
rfingers 7.12502
rthumb 40.8313 -22.9828
lclavicle -1.80894e-014 -8.54774e-014
lhumerus -193.974 -182.113 202.42
lradius 16.9838
lwrist -52.8862
lhand -0.618231 28.5551
lfingers 7.12502
lthumb 24.9981 56.9396
rfemur 144.392 -168.168 -166.626
rtibia 51.7929
rfoot -32.0055 -31.8125
rtoes 20.8235
lfemur -13.5067 0.0721207 12.9375
ltibia 45.6493
lfoot -37.5111 24.647
ltoes 52.8075
363
root -8.13453 16.1518 9.18563 193.88 154.444 197.932
lowerback -13.3471 -2.19281 -10.7115
upperback -9.29423 -1.60602 -6.79719
thorax -2.37286 -0.433382 -1.37563
lowerneck -12.7303 -4.77541 -4.47296
upperneck 39.3518 -7.65045 4.6161
head 16.7407 -3.11339 1.52768
rclavicle 2.0773e-014 -8.74653e-015
rhumerus -118.428 -60.2697 83.6109
rradius 12.0773
rwrist 119.876
rhand 14.4362 2.61176
rfingers 7.12502
rthumb 39.3207 -22.8156
lclavicle 2.0773e-014 -8.74653e-015
lhumerus -193.233 -184.494 204.063
lradius 16.8076
lwrist -55.0338
lhand -1.66928 28.0051
lfingers 7.12502
lthumb 23.9906 56.526
rfemur 141.599 -168.989 -165.032
rtibia 55.0834
rfoot -32.1199 -30.9206
rtoes 18.0124
lfemur -15.3081 -1.89012 12.6487
ltibia 45.7995
lfoot -35.2164 26.7673
ltoes 52.4296
364
root -8.10406 15.987 9.24906 192.767 156.137 196.367
lowerback -12.3613 -1.66763 -8.77431
upperback -9.01936 -1.26052 -6.68534
thorax -2.61454 -0.355643 -2.2495
lowerneck -13.3203 -4.49775 -4.39364
upperneck 39.082 -7.44628 5.16406
head 16.7586 -2.93948 1.77717
rclavicle -4.57205e-015 1.86858e-014
rhumerus -118.022 -61.3214 81.8482
rradius 11.8684
rwrist 119.047
rhand 12.8284 3.93106
rfingers 7.12502
rthumb 37.8038 -21.9213
lclavicle -4.57205e-015 1.86858e-014
lhumerus -192.239 -185.372 206.218
lradius 16.8276
lwrist -55.8362
lhand -2.99654 27.421
lfingers 7.12502
lthumb 22.7173 56.1037
rfemur 140.376 -170.037 -163.583
rtibia 57.7823
rfoot -32.5526 -30.4528
rtoes 17.026
lfemur -16.9325 -4.17835 12.6471
ltibia 46.2066
lfoot -32.0866 29.7763
ltoes 51.56
365
root -8.06053 15.8318 9.31401 191.699 157.881 195.009
lowerback -11.3994 -1.27452 -7.03913
upperback -8.6669 -1.01657 -6.45726
thorax -2.75324 -0.318703 -2.91781
lowerneck -13.9776 -4.10464 -4.39489
upperneck 38.9431 -6.95345 5.49655
head 16.8306 -2.68448 2.00173
rclavicle -7.65321e-015 -6.36111e-014
rhumerus -110.755 -63.8429 72.7017
rradius 11.4952
rwrist 115.374
rhand 11.805 4.97288
rfingers 7.12502
rthumb 36.8362 -21.1338
lclavicle -7.65321e-015 -6.36111e-014
lhumerus -191.272 -187.709 208.548
lradius 16.6127
lwrist -58.4314
lhand -3.86698 27.0991
lfingers 7.12502
lthumb 21.8817 55.8817
rfemur 139.705 -171.076 -162.346
rtibia 59.8738
rfoot -33.1313 -30.1311
rtoes 16.6603
lfemur -18.5422 -5.89952 12.3854
ltibia 46.7078
lfoot -26.6512 33.6865
ltoes 49.1765
366
root -8.0343 15.7319 9.39681 190.663 160.206 193.709
lowerback -10.3822 -0.738748 -5.33282
upperback -8.45876 -0.559087 -6.24717
thorax -3.07396 -0.168232 -3.58947
lowerneck -14.2913 -3.65418 -4.27219
upperneck 38.7467 -6.38542 5.75302
head 16.7652 -2.3977 2.18985
rclavicle 3.4191e-014 -5.56597e-015
rhumerus -104.057 -65.571 64.5449
rradius 11.2409
rwrist 113.011
rhand 10.8806 5.97584
rfingers 7.12502
rthumb 35.9611 -20.3502
lclavicle 3.4191e-014 -5.56597e-015
lhumerus -190.522 -188.16 210.937
lradius 16.7766
lwrist -59.6012
lhand -3.90681 26.7249
lfingers 7.12502
lthumb 21.8434 55.512
rfemur 139.529 -171.424 -160.957
rtibia 61.1739
rfoot -33.5469 -29.1164
rtoes 15.6375
lfemur -19.4799 -6.80636 11.7641
ltibia 46.9061
lfoot -21.7931 35.6055
ltoes 46.035
367
root -8.01127 15.6333 9.47177 189.637 162.514 192.691
lowerback -9.13464 -0.246643 -4.06819
upperback -8.2118 -0.102596 -6.04627
thorax -3.47177 0.00195658 -4.0427
lowerneck -14.2808 -3.20061 -4.10351
upperneck 38.1706 -5.82055 6.03177
head 16.4142 -2.11163 2.36844
rclavicle -2.55438e-014 -4.05521e-014
rhumerus -95.1978 -66.8304 54.3773
rradius 10.9047
rwrist 109.877
rhand 10.3548 6.47323
rfingers 7.12502
rthumb 35.4628 -19.9735
lclavicle -2.55438e-014 -4.05521e-014
lhumerus -189.679 -187.46 213.453
lradius 17.0819
lwrist -59.5414
lhand -4.12089 26.166
lfingers 7.12502
lthumb 21.6379 54.9769
rfemur 139.668 -171.608 -159.81
rtibia 62.1038
rfoot -33.8896 -28.214
rtoes 15.1282
lfemur -20.2138 -7.39009 10.8895
ltibia 46.9037
lfoot -21.7217 34.016
ltoes 44.9377
